<?xml version="1.0" encoding="UTF-8"?>
<svg id="_레이어_1" xmlns="http://www.w3.org/2000/svg" width="70" height="70" version="1.1" viewBox="0 0 70 70">
  <!-- Generator: Adobe Illustrator 29.3.1, SVG Export Plug-In . SVG Version: 2.1.0 Build 151)  -->
  <defs>
    <style>
      .st0 {
        fill: #fff;
        opacity: .7;
      }
    </style>
  </defs>
  <rect class="st0" width="70" height="70" rx="22" ry="22"/>
  <path d="M47,48.2h-6.7c-1.8,0-3.2-1.4-3.2-3.2v-7.4h-4.2v7.4c0,1.8-1.4,3.2-3.2,3.2h-6.7c-1.8,0-3.2-1.4-3.2-3.2v-14.6c0-.4.2-.7.4-1l13.8-12.7c.5-.5,1.3-.5,1.8,0l13.8,12.7c.3.3.4.6.4,1v14.6c0,1.8-1.4,3.2-3.2,3.2ZM31.6,34.9h6.9c.7,0,1.3.6,1.3,1.3v8.8c0,.3.2.5.5.5h6.7c.3,0,.5-.2.5-.5v-14l-12.5-11.5-12.5,11.5v14c0,.3.2.5.5.5h6.7c.3,0,.5-.2.5-.5v-8.8c0-.7.6-1.3,1.3-1.3Z"/>
</svg>